<svg width="401" height="91" viewBox="0 0 401 91" fill="none" xmlns="http://www.w3.org/2000/svg">
<path d="M18.736 67L19.408 28.12H28.624L32.896 50.728L37.504 28.12H46.384L47.056 67H40.96L40.24 41.128L35.728 67H30.304L25.504 40.936L24.928 67H18.736ZM47.9249 67L55.2689 28.12H65.0609L72.3089 67H64.3889L63.0929 58.792H57.3809L56.0369 67H47.9249ZM58.1489 53.656H62.2769L60.2129 38.488L58.1489 53.656ZM73.3544 67V28.12H79.4024L87.3704 46.84V28.12H94.4744V67H88.6664L80.6984 46.84V67H73.3544ZM97.3806 67V28.12H107.221C110.613 28.12 113.253 28.552 115.141 29.416C117.029 30.248 118.357 31.576 119.125 33.4C119.893 35.192 120.277 37.528 120.277 40.408V54.52C120.277 57.432 119.893 59.816 119.125 61.672C118.357 63.496 117.029 64.84 115.141 65.704C113.285 66.568 110.677 67 107.317 67H97.3806ZM105.973 61.048H107.317C108.629 61.048 109.573 60.856 110.149 60.472C110.725 60.088 111.077 59.512 111.205 58.744C111.365 57.976 111.445 57.016 111.445 55.864V38.92C111.445 37.768 111.349 36.84 111.157 36.136C110.997 35.432 110.629 34.92 110.053 34.6C109.477 34.28 108.549 34.12 107.269 34.12H105.973V61.048ZM119.995 68.008V62.008C120.859 62.008 121.595 61.96 122.203 61.864C122.811 61.768 123.291 61.592 123.643 61.336C123.995 61.048 124.251 60.648 124.411 60.136C124.571 59.592 124.651 58.904 124.651 58.072V28.12H133.243V58.456C133.243 60.568 132.971 62.344 132.427 63.784C131.915 65.192 131.003 66.248 129.691 66.952C128.379 67.656 126.539 68.008 124.171 68.008H119.995ZM136.105 67V28.12H153.577V33.976H144.697V43.624H151.465V49.576H144.697V61.192H153.673V67H136.105ZM165.014 67.576C162.582 67.576 160.55 67.144 158.918 66.28C157.286 65.416 156.054 64.088 155.222 62.296C154.39 60.472 153.926 58.12 153.83 55.24L161.174 54.136C161.206 55.8 161.35 57.144 161.606 58.168C161.894 59.192 162.278 59.928 162.758 60.376C163.27 60.824 163.878 61.048 164.582 61.048C165.478 61.048 166.054 60.744 166.31 60.136C166.598 59.528 166.742 58.888 166.742 58.216C166.742 56.616 166.358 55.272 165.59 54.184C164.822 53.064 163.782 51.944 162.47 50.824L159.11 47.896C157.638 46.648 156.39 45.24 155.366 43.672C154.374 42.072 153.878 40.104 153.878 37.768C153.878 34.472 154.854 31.96 156.806 30.232C158.758 28.472 161.414 27.592 164.774 27.592C166.854 27.592 168.518 27.944 169.766 28.648C171.046 29.352 172.006 30.28 172.646 31.432C173.318 32.552 173.766 33.752 173.99 35.032C174.246 36.28 174.39 37.48 174.422 38.632L167.03 39.544C166.998 38.392 166.918 37.4 166.79 36.568C166.694 35.704 166.47 35.048 166.118 34.6C165.766 34.12 165.222 33.88 164.486 33.88C163.686 33.88 163.094 34.216 162.71 34.888C162.358 35.56 162.182 36.232 162.182 36.904C162.182 38.344 162.518 39.528 163.19 40.456C163.894 41.352 164.806 42.296 165.926 43.288L169.142 46.12C170.838 47.56 172.262 49.192 173.414 51.016C174.598 52.84 175.19 55.096 175.19 57.784C175.19 59.608 174.774 61.272 173.942 62.776C173.11 64.248 171.926 65.416 170.39 66.28C168.886 67.144 167.094 67.576 165.014 67.576ZM185.871 67V28.12H203.343V33.976H194.463V43.624H201.231V49.576H194.463V61.192H203.439V67H185.871ZM204.46 67V28.12H210.508L218.476 46.84V28.12H225.58V67H219.772L211.804 46.84V67H204.46ZM237.887 67V28.12H250.943C253.279 28.12 255.199 28.568 256.703 29.464C258.207 30.328 259.327 31.608 260.063 33.304C260.799 34.968 261.167 37 261.167 39.4C261.167 42.408 260.671 44.712 259.679 46.312C258.687 47.88 257.343 48.968 255.647 49.576C253.951 50.184 252.047 50.488 249.935 50.488H246.479V67H237.887ZM246.479 44.488H249.359C250.415 44.488 251.215 44.296 251.759 43.912C252.303 43.528 252.655 42.952 252.815 42.184C253.007 41.416 253.103 40.44 253.103 39.256C253.103 38.264 253.023 37.4 252.863 36.664C252.735 35.896 252.399 35.288 251.855 34.84C251.311 34.392 250.463 34.168 249.311 34.168H246.479V44.488ZM273.661 67.576C270.685 67.576 268.349 67.096 266.653 66.136C264.989 65.144 263.821 63.72 263.149 61.864C262.477 59.976 262.141 57.672 262.141 54.952V28.12H270.637V56.248C270.637 57.048 270.701 57.848 270.829 58.648C270.957 59.448 271.229 60.104 271.645 60.616C272.093 61.128 272.765 61.384 273.661 61.384C274.589 61.384 275.261 61.128 275.677 60.616C276.093 60.104 276.349 59.448 276.445 58.648C276.573 57.848 276.637 57.048 276.637 56.248V28.12H285.181V54.952C285.181 57.672 284.829 59.976 284.125 61.864C283.453 63.72 282.285 65.144 280.621 66.136C278.957 67.096 276.637 67.576 273.661 67.576ZM299 67.576C296.024 67.576 293.688 67.096 291.992 66.136C290.328 65.144 289.16 63.72 288.488 61.864C287.816 59.976 287.48 57.672 287.48 54.952V28.12H295.976V56.248C295.976 57.048 296.04 57.848 296.168 58.648C296.296 59.448 296.568 60.104 296.984 60.616C297.432 61.128 298.104 61.384 299 61.384C299.928 61.384 300.6 61.128 301.016 60.616C301.432 60.104 301.688 59.448 301.784 58.648C301.912 57.848 301.976 57.048 301.976 56.248V28.12H310.52V54.952C310.52 57.672 310.168 59.976 309.464 61.864C308.792 63.72 307.624 65.144 305.96 66.136C304.296 67.096 301.976 67.576 299 67.576ZM316.611 67V34.504H310.755V28.12H331.059V34.504H325.251V67H316.611ZM328.221 68.008V62.008C329.085 62.008 329.821 61.96 330.429 61.864C331.037 61.768 331.517 61.592 331.869 61.336C332.221 61.048 332.477 60.648 332.637 60.136C332.797 59.592 332.877 58.904 332.877 58.072V28.12H341.469V58.456C341.469 60.568 341.197 62.344 340.653 63.784C340.141 65.192 339.229 66.248 337.917 66.952C336.605 67.656 334.765 68.008 332.397 68.008H328.221ZM344.331 67V28.12H361.803V33.976H352.923V43.624H359.691V49.576H352.923V61.192H361.899V67H344.331ZM373.24 67.576C370.808 67.576 368.776 67.144 367.144 66.28C365.512 65.416 364.28 64.088 363.448 62.296C362.616 60.472 362.152 58.12 362.056 55.24L369.4 54.136C369.432 55.8 369.576 57.144 369.832 58.168C370.12 59.192 370.504 59.928 370.984 60.376C371.496 60.824 372.104 61.048 372.808 61.048C373.704 61.048 374.28 60.744 374.536 60.136C374.824 59.528 374.968 58.888 374.968 58.216C374.968 56.616 374.584 55.272 373.816 54.184C373.048 53.064 372.008 51.944 370.696 50.824L367.336 47.896C365.864 46.648 364.616 45.24 363.592 43.672C362.6 42.072 362.104 40.104 362.104 37.768C362.104 34.472 363.08 31.96 365.032 30.232C366.984 28.472 369.64 27.592 373 27.592C375.08 27.592 376.744 27.944 377.992 28.648C379.272 29.352 380.232 30.28 380.872 31.432C381.544 32.552 381.992 33.752 382.216 35.032C382.472 36.28 382.616 37.48 382.648 38.632L375.256 39.544C375.224 38.392 375.144 37.4 375.016 36.568C374.92 35.704 374.696 35.048 374.344 34.6C373.992 34.12 373.448 33.88 372.712 33.88C371.912 33.88 371.32 34.216 370.936 34.888C370.584 35.56 370.408 36.232 370.408 36.904C370.408 38.344 370.744 39.528 371.416 40.456C372.12 41.352 373.032 42.296 374.152 43.288L377.368 46.12C379.064 47.56 380.488 49.192 381.64 51.016C382.824 52.84 383.416 55.096 383.416 57.784C383.416 59.608 383 61.272 382.168 62.776C381.336 64.248 380.152 65.416 378.616 66.28C377.112 67.144 375.32 67.576 373.24 67.576Z" fill="#FFFFFC"/>
</svg>
