<svg width="155" height="44" viewBox="0 0 155 44" fill="none" xmlns="http://www.w3.org/2000/svg">
<path d="M16.912 29L17.136 16.04H20.208L21.632 23.576L23.168 16.04H26.128L26.352 29H24.32L24.08 20.376L22.576 29H20.768L19.168 20.312L18.976 29H16.912ZM26.6416 29L29.0896 16.04H32.3536L34.7696 29H32.1296L31.6976 26.264H29.7936L29.3456 29H26.6416ZM30.0496 24.552H31.4256L30.7376 19.496L30.0496 24.552ZM35.1181 29V16.04H37.1341L39.7901 22.28V16.04H42.1581V29H40.2221L37.5661 22.28V29H35.1181ZM43.1269 29V16.04H46.4069C47.5375 16.04 48.4175 16.184 49.0469 16.472C49.6762 16.7493 50.1189 17.192 50.3749 17.8C50.6309 18.3973 50.7589 19.176 50.7589 20.136V24.84C50.7589 25.8107 50.6309 26.6053 50.3749 27.224C50.1189 27.832 49.6762 28.28 49.0469 28.568C48.4282 28.856 47.5589 29 46.4389 29H43.1269ZM45.9909 27.016H46.4389C46.8762 27.016 47.1909 26.952 47.3829 26.824C47.5749 26.696 47.6922 26.504 47.7349 26.248C47.7882 25.992 47.8149 25.672 47.8149 25.288V19.64C47.8149 19.256 47.7829 18.9467 47.7189 18.712C47.6655 18.4773 47.5429 18.3067 47.3509 18.2C47.1589 18.0933 46.8495 18.04 46.4229 18.04H45.9909V27.016ZM50.6649 29.336V27.336C50.9529 27.336 51.1982 27.32 51.4009 27.288C51.6035 27.256 51.7635 27.1973 51.8809 27.112C51.9982 27.016 52.0835 26.8827 52.1369 26.712C52.1902 26.5307 52.2169 26.3013 52.2169 26.024V16.04H55.0809V26.152C55.0809 26.856 54.9902 27.448 54.8089 27.928C54.6382 28.3973 54.3342 28.7493 53.8969 28.984C53.4595 29.2187 52.8462 29.336 52.0569 29.336H50.6649ZM56.035 29V16.04H61.859V17.992H58.899V21.208H61.155V23.192H58.899V27.064H61.891V29H56.035ZM65.6713 29.192C64.8606 29.192 64.1833 29.048 63.6393 28.76C63.0953 28.472 62.6846 28.0293 62.4073 27.432C62.1299 26.824 61.9753 26.04 61.9433 25.08L64.3913 24.712C64.4019 25.2667 64.4499 25.7147 64.5353 26.056C64.6313 26.3973 64.7593 26.6427 64.9193 26.792C65.0899 26.9413 65.2926 27.016 65.5273 27.016C65.8259 27.016 66.0179 26.9147 66.1033 26.712C66.1993 26.5093 66.2473 26.296 66.2473 26.072C66.2473 25.5387 66.1193 25.0907 65.8633 24.728C65.6073 24.3547 65.2606 23.9813 64.8233 23.608L63.7033 22.632C63.2126 22.216 62.7966 21.7467 62.4553 21.224C62.1246 20.6907 61.9593 20.0347 61.9593 19.256C61.9593 18.1573 62.2846 17.32 62.9353 16.744C63.5859 16.1573 64.4713 15.864 65.5913 15.864C66.2846 15.864 66.8393 15.9813 67.2553 16.216C67.6819 16.4507 68.0019 16.76 68.2153 17.144C68.4393 17.5173 68.5886 17.9173 68.6633 18.344C68.7486 18.76 68.7966 19.16 68.8073 19.544L66.3433 19.848C66.3326 19.464 66.3059 19.1333 66.2633 18.856C66.2313 18.568 66.1566 18.3493 66.0393 18.2C65.9219 18.04 65.7406 17.96 65.4953 17.96C65.2286 17.96 65.0313 18.072 64.9033 18.296C64.7859 18.52 64.7273 18.744 64.7273 18.968C64.7273 19.448 64.8393 19.8427 65.0633 20.152C65.2979 20.4507 65.6019 20.7653 65.9753 21.096L67.0473 22.04C67.6126 22.52 68.0873 23.064 68.4713 23.672C68.8659 24.28 69.0633 25.032 69.0633 25.928C69.0633 26.536 68.9246 27.0907 68.6473 27.592C68.3699 28.0827 67.9753 28.472 67.4633 28.76C66.9619 29.048 66.3646 29.192 65.6713 29.192ZM72.6237 29V16.04H78.4478V17.992H75.4877V21.208H77.7438V23.192H75.4877V27.064H78.4798V29H72.6237ZM78.82 29V16.04H80.836L83.492 22.28V16.04H85.86V29H83.924L81.268 22.28V29H78.82ZM89.9625 29V16.04H94.3145C95.0932 16.04 95.7332 16.1893 96.2345 16.488C96.7358 16.776 97.1092 17.2027 97.3545 17.768C97.5998 18.3227 97.7225 19 97.7225 19.8C97.7225 20.8027 97.5572 21.5707 97.2265 22.104C96.8958 22.6267 96.4478 22.9893 95.8825 23.192C95.3172 23.3947 94.6825 23.496 93.9785 23.496H92.8265V29H89.9625ZM92.8265 21.496H93.7865C94.1385 21.496 94.4052 21.432 94.5865 21.304C94.7678 21.176 94.8852 20.984 94.9385 20.728C95.0025 20.472 95.0345 20.1467 95.0345 19.752C95.0345 19.4213 95.0078 19.1333 94.9545 18.888C94.9118 18.632 94.7998 18.4293 94.6185 18.28C94.4372 18.1307 94.1545 18.056 93.7705 18.056H92.8265V21.496ZM101.887 29.192C100.895 29.192 100.116 29.032 99.5511 28.712C98.9965 28.3813 98.6071 27.9067 98.3831 27.288C98.1591 26.6587 98.0471 25.8907 98.0471 24.984V16.04H100.879V25.416C100.879 25.6827 100.9 25.9493 100.943 26.216C100.986 26.4827 101.076 26.7013 101.215 26.872C101.364 27.0427 101.588 27.128 101.887 27.128C102.196 27.128 102.42 27.0427 102.559 26.872C102.698 26.7013 102.783 26.4827 102.815 26.216C102.858 25.9493 102.879 25.6827 102.879 25.416V16.04H105.727V24.984C105.727 25.8907 105.61 26.6587 105.375 27.288C105.151 27.9067 104.762 28.3813 104.207 28.712C103.652 29.032 102.879 29.192 101.887 29.192ZM110.333 29.192C109.341 29.192 108.563 29.032 107.997 28.712C107.443 28.3813 107.053 27.9067 106.829 27.288C106.605 26.6587 106.493 25.8907 106.493 24.984V16.04H109.325V25.416C109.325 25.6827 109.347 25.9493 109.389 26.216C109.432 26.4827 109.523 26.7013 109.661 26.872C109.811 27.0427 110.035 27.128 110.333 27.128C110.643 27.128 110.867 27.0427 111.005 26.872C111.144 26.7013 111.229 26.4827 111.261 26.216C111.304 25.9493 111.325 25.6827 111.325 25.416V16.04H114.173V24.984C114.173 25.8907 114.056 26.6587 113.821 27.288C113.597 27.9067 113.208 28.3813 112.653 28.712C112.099 29.032 111.325 29.192 110.333 29.192ZM116.204 29V18.168H114.252V16.04H121.02V18.168H119.084V29H116.204ZM120.074 29.336V27.336C120.362 27.336 120.607 27.32 120.81 27.288C121.012 27.256 121.172 27.1973 121.29 27.112C121.407 27.016 121.492 26.8827 121.546 26.712C121.599 26.5307 121.626 26.3013 121.626 26.024V16.04H124.49V26.152C124.49 26.856 124.399 27.448 124.218 27.928C124.047 28.3973 123.743 28.7493 123.306 28.984C122.868 29.2187 122.255 29.336 121.466 29.336H120.074ZM125.444 29V16.04H131.268V17.992H128.308V21.208H130.564V23.192H128.308V27.064H131.3V29H125.444ZM135.08 29.192C134.269 29.192 133.592 29.048 133.048 28.76C132.504 28.472 132.093 28.0293 131.816 27.432C131.539 26.824 131.384 26.04 131.352 25.08L133.8 24.712C133.811 25.2667 133.859 25.7147 133.944 26.056C134.04 26.3973 134.168 26.6427 134.328 26.792C134.499 26.9413 134.701 27.016 134.936 27.016C135.235 27.016 135.427 26.9147 135.512 26.712C135.608 26.5093 135.656 26.296 135.656 26.072C135.656 25.5387 135.528 25.0907 135.272 24.728C135.016 24.3547 134.669 23.9813 134.232 23.608L133.112 22.632C132.621 22.216 132.205 21.7467 131.864 21.224C131.533 20.6907 131.368 20.0347 131.368 19.256C131.368 18.1573 131.693 17.32 132.344 16.744C132.995 16.1573 133.88 15.864 135 15.864C135.693 15.864 136.248 15.9813 136.664 16.216C137.091 16.4507 137.411 16.76 137.624 17.144C137.848 17.5173 137.997 17.9173 138.072 18.344C138.157 18.76 138.205 19.16 138.216 19.544L135.752 19.848C135.741 19.464 135.715 19.1333 135.672 18.856C135.64 18.568 135.565 18.3493 135.448 18.2C135.331 18.04 135.149 17.96 134.904 17.96C134.637 17.96 134.44 18.072 134.312 18.296C134.195 18.52 134.136 18.744 134.136 18.968C134.136 19.448 134.248 19.8427 134.472 20.152C134.707 20.4507 135.011 20.7653 135.384 21.096L136.456 22.04C137.021 22.52 137.496 23.064 137.88 23.672C138.275 24.28 138.472 25.032 138.472 25.928C138.472 26.536 138.333 27.0907 138.056 27.592C137.779 28.0827 137.384 28.472 136.872 28.76C136.371 29.048 135.773 29.192 135.08 29.192Z" fill="#FFFFFC"/>
</svg>
